<svg xmlns="http://www.w3.org/2000/svg" viewBox="314 365 1572 1470" aria-hidden="true">
  <defs>
    <linearGradient id="folder-tab" gradientUnits="userSpaceOnUse" x1="1100" y1="418.9841" x2="1100" y2="856.7444">
      <stop offset="0" stop-color="#17C8FF"/>
      <stop offset="1" stop-color="#2146B5"/>
    </linearGradient>
    <linearGradient id="folder-body" gradientUnits="userSpaceOnUse" x1="1100" y1="765.3689" x2="1100" y2="1816.2212">
      <stop offset="0" stop-color="#17C8FF"/>
      <stop offset="1" stop-color="#2A76E0"/>
    </linearGradient>
  </defs>
  <path fill="url(#folder-tab)" d="M1799.462,498.926h-727.629c-17.472,0-34.527-5.333-48.886-15.286L874.553,380.786c-14.359-9.953-31.415-15.286-48.886-15.286H400.538c-47.395,0-85.816,38.421-85.816,85.816V805.5h1570.556V584.742C1885.278,537.347,1846.857,498.926,1799.462,498.926z"/>
  <path fill="url(#folder-body)" d="M1822.525,1834.5H377.476c-55.909,0-102.152-43.531-105.527-99.337l-52.712-871.561C215.56,802.816,263.866,751.5,324.763,751.5h1550.473c60.897,0,109.203,51.316,105.527,112.102l-52.712,871.561C1924.676,1790.969,1878.433,1834.5,1822.525,1834.5z"/>
</svg>
