<svg xmlns="http://www.w3.org/2000/svg" xmlns:xlink="http://www.w3.org/1999/xlink" width="200" zoomAndPan="magnify" viewBox="0 0 150 37.5" height="50" preserveAspectRatio="xMidYMid meet" version="1.0"><defs><g/><clipPath id="c418601d32"><path d="M 28 6 L 36 6 L 36 13 L 28 13 Z M 28 6 " clip-rule="nonzero"/></clipPath><clipPath id="ec9d667f99"><path d="M 27.410156 8.265625 L 33.113281 4.820312 L 37.324219 11.789062 L 31.621094 15.234375 Z M 27.410156 8.265625 " clip-rule="nonzero"/></clipPath><clipPath id="25a87633c2"><path d="M 27.410156 8.265625 L 33.113281 4.820312 L 37.324219 11.789062 L 31.621094 15.234375 Z M 27.410156 8.265625 " clip-rule="nonzero"/></clipPath><clipPath id="81b327a64d"><path d="M 123 7 L 132 7 L 132 15 L 123 15 Z M 123 7 " clip-rule="nonzero"/></clipPath><clipPath id="c0f926f16f"><path d="M 122.3125 10.355469 L 129.535156 6.601562 L 131.925781 11.199219 L 124.699219 14.953125 Z M 122.3125 10.355469 " clip-rule="nonzero"/></clipPath><clipPath id="142b9473df"><path d="M 122.3125 10.355469 L 129.535156 6.601562 L 131.925781 11.199219 L 124.699219 14.953125 Z M 122.3125 10.355469 " clip-rule="nonzero"/></clipPath></defs><g clip-path="url(#c418601d32)"><g clip-path="url(#ec9d667f99)"><g clip-path="url(#25a87633c2)"><path fill="#ffffff" d="M 30.261719 6.597656 C 29.886719 6.824219 29.570312 7.113281 29.3125 7.46875 C 29.050781 7.820312 28.871094 8.207031 28.765625 8.632812 C 28.660156 9.058594 28.640625 9.488281 28.707031 9.917969 C 28.769531 10.351562 28.917969 10.757812 29.144531 11.132812 C 31.5625 14.785156 36.902344 11.558594 34.792969 7.714844 C 34.566406 7.34375 34.277344 7.023438 33.925781 6.765625 C 33.574219 6.507812 33.183594 6.324219 32.757812 6.21875 C 32.335938 6.113281 31.90625 6.09375 31.472656 6.160156 C 31.039062 6.226562 30.636719 6.371094 30.261719 6.597656 Z M 30.605469 9.058594 L 30.355469 10.292969 L 31.566406 10.648438 L 31.433594 11.101562 L 29.808594 10.625 L 30.140625 8.960938 Z M 31.980469 10.859375 L 31.488281 8.070312 L 31.957031 7.988281 L 32.445312 10.777344 Z M 33.238281 9.640625 L 33.488281 8.402344 L 32.277344 8.046875 L 32.410156 7.59375 L 34.039062 8.070312 L 33.703125 9.730469 Z M 33.238281 9.640625 " fill-opacity="1" fill-rule="nonzero"/></g></g></g><g clip-path="url(#81b327a64d)"><g clip-path="url(#c0f926f16f)"><g clip-path="url(#142b9473df)"><path fill="#ffffff" d="M 130.089844 9.003906 C 129.214844 8.035156 128.492188 7.472656 127.601562 7.667969 C 127.464844 7.695312 127.34375 7.738281 127.234375 7.796875 C 126.996094 7.917969 126.84375 8.089844 126.695312 8.253906 C 126.5625 8.402344 126.40625 8.570312 126.160156 8.730469 L 125.964844 8.835938 C 125.96875 8.839844 125.332031 9.058594 125.085938 9.089844 C 124.867188 9.113281 124.644531 9.140625 124.410156 9.265625 C 124.296875 9.324219 124.191406 9.394531 124.089844 9.492188 C 123.417969 10.109375 123.464844 11.023438 123.753906 12.296875 C 124.085938 13.769531 124.632812 14.59375 125.253906 14.550781 C 125.351562 14.542969 125.449219 14.515625 125.535156 14.472656 C 125.984375 14.238281 126.152344 13.554688 126.273438 13.050781 L 126.308594 12.914062 C 126.402344 12.5 126.832031 12.070312 127.484375 11.730469 C 128.191406 11.363281 128.699219 11.277344 129.128906 11.449219 L 129.257812 11.503906 C 129.738281 11.691406 130.394531 11.945312 130.84375 11.714844 C 130.933594 11.667969 131.007812 11.605469 131.070312 11.527344 C 131.460938 11.046875 131.105469 10.125 130.089844 9.003906 Z M 125.894531 11.292969 L 125.558594 11.46875 L 125.730469 11.792969 C 125.789062 11.914062 125.738281 12.070312 125.613281 12.132812 C 125.488281 12.199219 125.332031 12.152344 125.269531 12.035156 L 125.101562 11.707031 L 124.785156 11.871094 C 124.664062 11.933594 124.507812 11.882812 124.445312 11.757812 C 124.378906 11.632812 124.425781 11.472656 124.542969 11.414062 L 124.859375 11.246094 L 124.691406 10.921875 C 124.628906 10.800781 124.683594 10.648438 124.808594 10.582031 C 124.929688 10.515625 125.089844 10.5625 125.152344 10.683594 L 125.320312 11.007812 L 125.65625 10.835938 C 125.777344 10.773438 125.933594 10.824219 125.996094 10.949219 C 126.0625 11.074219 126.015625 11.230469 125.894531 11.292969 Z M 128.492188 10.453125 C 128.308594 10.550781 128.078125 10.476562 127.980469 10.289062 C 127.882812 10.105469 127.957031 9.875 128.140625 9.777344 C 128.328125 9.679688 128.558594 9.753906 128.65625 9.941406 C 128.75 10.125 128.679688 10.355469 128.492188 10.453125 Z M 128.796875 9.496094 C 128.609375 9.59375 128.378906 9.519531 128.28125 9.332031 C 128.1875 9.148438 128.257812 8.917969 128.445312 8.820312 C 128.632812 8.722656 128.859375 8.796875 128.957031 8.980469 C 129.054688 9.167969 128.980469 9.398438 128.796875 9.496094 Z M 128.796875 9.496094 " fill-opacity="1" fill-rule="nonzero"/></g></g></g><g fill="#c00510" fill-opacity="1"><g transform="translate(3.235343, 30.769889)"><g><path d="M 1.890625 -0.515625 L 1.890625 -24.765625 C 1.890625 -25.097656 2.0625 -25.265625 2.40625 -25.265625 L 15.953125 -25.265625 C 16.296875 -25.265625 16.46875 -25.097656 16.46875 -24.765625 L 16.46875 -24.171875 C 16.46875 -23.828125 16.640625 -23.65625 16.984375 -23.65625 L 17.578125 -23.65625 C 17.921875 -23.65625 18.09375 -23.484375 18.09375 -23.140625 L 18.09375 -22.546875 C 18.09375 -22.203125 18.265625 -22.03125 18.609375 -22.03125 L 19.203125 -22.03125 C 19.535156 -22.03125 19.703125 -21.859375 19.703125 -21.515625 L 19.703125 -13.84375 C 19.703125 -13.507812 19.535156 -13.34375 19.203125 -13.34375 L 18.609375 -13.34375 C 18.265625 -13.34375 18.09375 -13.171875 18.09375 -12.828125 L 18.09375 -12.234375 C 18.09375 -11.890625 17.921875 -11.71875 17.578125 -11.71875 L 12.9375 -11.71875 C 12.59375 -11.71875 12.421875 -11.546875 12.421875 -11.203125 L 12.421875 -10.609375 C 12.421875 -10.265625 12.25 -10.09375 11.90625 -10.09375 L 9.6875 -10.09375 C 9.351562 -10.09375 9.1875 -9.921875 9.1875 -9.578125 L 9.1875 -0.515625 C 9.1875 -0.171875 9.015625 0 8.671875 0 L 2.40625 0 C 2.0625 0 1.890625 -0.171875 1.890625 -0.515625 Z M 9.1875 -23.140625 L 9.1875 -12.234375 C 9.1875 -11.890625 9.351562 -11.71875 9.6875 -11.71875 L 10.28125 -11.71875 C 10.625 -11.71875 10.796875 -11.890625 10.796875 -12.234375 L 10.796875 -12.828125 C 10.796875 -13.171875 10.96875 -13.34375 11.3125 -13.34375 L 11.90625 -13.34375 C 12.25 -13.34375 12.421875 -13.507812 12.421875 -13.84375 L 12.421875 -21.515625 C 12.421875 -21.859375 12.25 -22.03125 11.90625 -22.03125 L 11.3125 -22.03125 C 10.96875 -22.03125 10.796875 -22.203125 10.796875 -22.546875 L 10.796875 -23.140625 C 10.796875 -23.484375 10.625 -23.65625 10.28125 -23.65625 L 9.6875 -23.65625 C 9.351562 -23.65625 9.1875 -23.484375 9.1875 -23.140625 Z M 9.1875 -23.140625 "/></g></g></g><g fill="#ffffff" fill-opacity="1"><g transform="translate(23.48488, 30.769889)"><g><path d="M 1.890625 -0.515625 L 1.890625 -18.390625 C 1.890625 -18.734375 2.0625 -18.90625 2.40625 -18.90625 L 6.234375 -18.90625 C 6.578125 -18.90625 6.75 -18.734375 6.75 -18.390625 L 6.75 -16.171875 C 6.75 -15.828125 6.921875 -15.65625 7.265625 -15.65625 L 7.859375 -15.65625 C 8.203125 -15.65625 8.375 -15.828125 8.375 -16.171875 L 8.375 -16.765625 C 8.375 -17.109375 8.546875 -17.28125 8.890625 -17.28125 L 9.484375 -17.28125 C 9.816406 -17.28125 9.984375 -17.453125 9.984375 -17.796875 L 9.984375 -18.390625 C 9.984375 -18.734375 10.15625 -18.90625 10.5 -18.90625 L 15.140625 -18.90625 C 15.484375 -18.90625 15.65625 -18.734375 15.65625 -18.390625 L 15.65625 -17.796875 C 15.65625 -17.453125 15.828125 -17.28125 16.171875 -17.28125 L 16.765625 -17.28125 C 16.910156 -17.28125 16.984375 -17.28125 16.984375 -17.28125 C 16.984375 -17.28125 16.910156 -17.28125 16.765625 -17.28125 L 16.171875 -17.28125 C 16.023438 -17.28125 15.953125 -17.28125 15.953125 -17.28125 C 15.953125 -17.28125 16.023438 -17.28125 16.171875 -17.28125 L 16.765625 -17.28125 C 17.109375 -17.28125 17.28125 -17.109375 17.28125 -16.765625 L 17.28125 -13.046875 C 17.28125 -12.703125 17.109375 -12.53125 16.765625 -12.53125 L 11.3125 -12.53125 C 10.96875 -12.53125 10.796875 -12.703125 10.796875 -13.046875 L 10.796875 -15.140625 C 10.796875 -15.484375 10.625 -15.65625 10.28125 -15.65625 L 9.6875 -15.65625 C 9.351562 -15.65625 9.1875 -15.484375 9.1875 -15.140625 L 9.1875 -0.515625 C 9.1875 -0.171875 9.015625 0 8.671875 0 L 2.40625 0 C 2.0625 0 1.890625 -0.171875 1.890625 -0.515625 Z M 1.890625 -0.515625 "/></g></g></g><g fill="#ffffff" fill-opacity="1"><g transform="translate(40.489599, 30.769889)"><g><path d="M 11.359375 -8.609375 L 9.15625 -8.609375 C 8.8125 -8.609375 8.640625 -8.4375 8.640625 -8.09375 L 8.640625 -2.140625 C 8.640625 -1.796875 8.8125 -1.625 9.15625 -1.625 L 9.75 -1.625 C 10.09375 -1.625 10.265625 -1.796875 10.265625 -2.140625 L 10.265625 -2.734375 C 10.265625 -3.066406 10.429688 -3.234375 10.765625 -3.234375 L 11.359375 -3.234375 C 11.703125 -3.234375 11.875 -3.40625 11.875 -3.75 L 11.875 -8.09375 C 11.875 -8.4375 11.703125 -8.609375 11.359375 -8.609375 Z M 2.96875 -0.515625 L 2.96875 -1.109375 C 2.96875 -1.453125 2.796875 -1.625 2.453125 -1.625 L 1.859375 -1.625 C 1.515625 -1.625 1.34375 -1.796875 1.34375 -2.140625 L 1.34375 -8.09375 C 1.34375 -8.4375 1.515625 -8.609375 1.859375 -8.609375 L 2.453125 -8.609375 C 2.796875 -8.609375 2.96875 -8.78125 2.96875 -9.125 L 2.96875 -9.71875 C 2.96875 -10.0625 3.140625 -10.234375 3.484375 -10.234375 L 9.75 -10.234375 C 10.09375 -10.234375 10.265625 -10.40625 10.265625 -10.75 L 10.265625 -11.34375 C 10.265625 -11.6875 10.429688 -11.859375 10.765625 -11.859375 L 12.171875 -11.859375 C 12.515625 -11.859375 12.6875 -12.023438 12.6875 -12.359375 L 12.6875 -16.765625 C 12.6875 -17.109375 12.515625 -17.28125 12.171875 -17.28125 L 10.765625 -17.28125 C 10.429688 -17.28125 10.265625 -17.109375 10.265625 -16.765625 L 10.265625 -14.546875 C 10.265625 -14.210938 10.09375 -14.046875 9.75 -14.046875 L 9.15625 -14.046875 C 8.8125 -14.046875 8.640625 -13.875 8.640625 -13.53125 L 8.640625 -12.125 C 8.640625 -11.78125 8.46875 -11.609375 8.125 -11.609375 L 2.671875 -11.609375 C 2.328125 -11.609375 2.15625 -11.78125 2.15625 -12.125 L 2.15625 -16.765625 C 2.15625 -17.109375 2.328125 -17.28125 2.671875 -17.28125 L 3.671875 -17.28125 C 4.015625 -17.28125 4.1875 -17.453125 4.1875 -17.796875 L 4.1875 -18.390625 C 4.1875 -18.734375 4.359375 -18.90625 4.703125 -18.90625 L 17.03125 -18.90625 C 17.375 -18.90625 17.546875 -18.734375 17.546875 -18.390625 L 17.546875 -17.796875 C 17.546875 -17.453125 17.71875 -17.28125 18.0625 -17.28125 L 18.65625 -17.28125 C 19 -17.28125 19.171875 -17.109375 19.171875 -16.765625 L 19.171875 -0.515625 C 19.171875 -0.171875 19 0 18.65625 0 L 14.015625 0 C 13.671875 0 13.5 -0.171875 13.5 -0.515625 L 13.5 -1.109375 C 13.5 -1.453125 13.328125 -1.625 12.984375 -1.625 L 12.390625 -1.625 C 12.046875 -1.625 11.875 -1.453125 11.875 -1.109375 L 11.875 -0.515625 C 11.875 -0.171875 11.703125 0 11.359375 0 L 3.484375 0 C 3.140625 0 2.96875 -0.171875 2.96875 -0.515625 Z M 2.96875 -0.515625 "/></g></g></g><g fill="#ffffff" fill-opacity="1"><g transform="translate(61.543098, 30.769889)"><g><path d="M 3.515625 -0.515625 L 3.515625 -1.109375 C 3.515625 -1.453125 3.34375 -1.625 3 -1.625 L 2.40625 -1.625 C 2.0625 -1.625 1.890625 -1.796875 1.890625 -2.140625 L 1.890625 -18.390625 C 1.890625 -18.734375 2.0625 -18.90625 2.40625 -18.90625 L 8.671875 -18.90625 C 9.015625 -18.90625 9.1875 -18.734375 9.1875 -18.390625 L 9.1875 -2.140625 C 9.1875 -1.796875 9.351562 -1.625 9.6875 -1.625 L 10.46875 -1.625 C 10.8125 -1.625 10.984375 -1.796875 10.984375 -2.140625 L 10.984375 -2.734375 C 10.984375 -3.066406 11.15625 -3.234375 11.5 -3.234375 L 12.09375 -3.234375 C 12.4375 -3.234375 12.609375 -3.40625 12.609375 -3.75 L 12.609375 -18.390625 C 12.609375 -18.734375 12.78125 -18.90625 13.125 -18.90625 L 19.390625 -18.90625 C 19.734375 -18.90625 19.90625 -18.734375 19.90625 -18.390625 L 19.90625 -7 C 19.90625 -6.65625 19.734375 -6.484375 19.390625 -6.484375 L 18.5 -6.484375 C 18.15625 -6.484375 17.984375 -6.3125 17.984375 -5.96875 L 17.984375 -5.375 C 17.984375 -5.03125 17.8125 -4.859375 17.46875 -4.859375 L 16.875 -4.859375 C 16.53125 -4.859375 16.359375 -4.6875 16.359375 -4.34375 L 16.359375 -3.75 C 16.359375 -3.40625 16.1875 -3.234375 15.84375 -3.234375 L 15.25 -3.234375 C 14.90625 -3.234375 14.734375 -3.066406 14.734375 -2.734375 L 14.734375 -2.140625 C 14.734375 -1.796875 14.566406 -1.625 14.234375 -1.625 L 13.953125 -1.625 C 13.617188 -1.625 13.453125 -1.453125 13.453125 -1.109375 L 13.453125 -0.515625 C 13.453125 -0.171875 13.28125 0 12.9375 0 L 4.015625 0 C 3.679688 0 3.515625 -0.171875 3.515625 -0.515625 Z M 3.515625 -0.515625 "/></g></g></g><g fill="#ffffff" fill-opacity="1"><g transform="translate(83.055452, 30.769889)"><g><path d="M 5.125 -0.515625 L 5.125 -1.109375 C 5.125 -1.453125 4.953125 -1.625 4.609375 -1.625 L 4.015625 -1.625 C 3.679688 -1.625 3.515625 -1.796875 3.515625 -2.140625 L 3.515625 -2.734375 C 3.515625 -3.066406 3.34375 -3.234375 3 -3.234375 L 2.40625 -3.234375 C 2.0625 -3.234375 1.890625 -3.40625 1.890625 -3.75 L 1.890625 -15.140625 C 1.890625 -15.484375 2.0625 -15.65625 2.40625 -15.65625 L 3 -15.65625 C 3.34375 -15.65625 3.515625 -15.828125 3.515625 -16.171875 L 3.515625 -16.765625 C 3.515625 -17.109375 3.679688 -17.28125 4.015625 -17.28125 L 4.609375 -17.28125 C 4.953125 -17.28125 5.125 -17.453125 5.125 -17.796875 L 5.125 -18.390625 C 5.125 -18.734375 5.296875 -18.90625 5.640625 -18.90625 L 15.953125 -18.90625 C 16.296875 -18.90625 16.46875 -18.734375 16.46875 -18.390625 L 16.46875 -17.796875 C 16.46875 -17.453125 16.640625 -17.28125 16.984375 -17.28125 L 17.578125 -17.28125 C 17.921875 -17.28125 18.09375 -17.109375 18.09375 -16.765625 L 18.09375 -16.171875 C 18.09375 -15.828125 18.265625 -15.65625 18.609375 -15.65625 L 19.203125 -15.65625 C 19.535156 -15.65625 19.703125 -15.484375 19.703125 -15.140625 L 19.703125 -10.765625 C 19.703125 -10.429688 19.535156 -10.265625 19.203125 -10.265625 L 18.609375 -10.265625 C 18.265625 -10.265625 18.09375 -10.09375 18.09375 -9.75 L 18.09375 -9.15625 C 18.09375 -8.8125 17.921875 -8.640625 17.578125 -8.640625 L 9.6875 -8.640625 C 9.351562 -8.640625 9.1875 -8.46875 9.1875 -8.125 L 9.1875 -2.140625 C 9.1875 -1.796875 9.351562 -1.625 9.6875 -1.625 L 10.28125 -1.625 C 10.625 -1.625 10.796875 -1.796875 10.796875 -2.140625 L 10.796875 -2.734375 C 10.796875 -3.066406 10.96875 -3.234375 11.3125 -3.234375 L 11.90625 -3.234375 C 12.25 -3.234375 12.421875 -3.40625 12.421875 -3.75 L 12.421875 -5.609375 C 12.421875 -5.953125 12.59375 -6.125 12.9375 -6.125 L 19.203125 -6.125 C 19.535156 -6.125 19.703125 -5.953125 19.703125 -5.609375 L 19.703125 -3.75 C 19.703125 -3.40625 19.535156 -3.234375 19.203125 -3.234375 L 18.609375 -3.234375 C 18.265625 -3.234375 18.09375 -3.066406 18.09375 -2.734375 L 18.09375 -2.140625 C 18.09375 -1.796875 17.921875 -1.625 17.578125 -1.625 L 16.984375 -1.625 C 16.640625 -1.625 16.46875 -1.453125 16.46875 -1.109375 L 16.46875 -0.515625 C 16.46875 -0.171875 16.296875 0 15.953125 0 L 5.640625 0 C 5.296875 0 5.125 -0.171875 5.125 -0.515625 Z M 9.6875 -10.265625 L 11.90625 -10.265625 C 12.25 -10.265625 12.421875 -10.429688 12.421875 -10.765625 L 12.421875 -16.765625 C 12.421875 -17.109375 12.25 -17.28125 11.90625 -17.28125 L 11.3125 -17.28125 C 10.96875 -17.28125 10.796875 -17.109375 10.796875 -16.765625 L 10.796875 -16.171875 C 10.796875 -15.828125 10.625 -15.65625 10.28125 -15.65625 L 9.6875 -15.65625 C 9.351562 -15.65625 9.1875 -15.484375 9.1875 -15.140625 L 9.1875 -10.765625 C 9.1875 -10.429688 9.351562 -10.265625 9.6875 -10.265625 Z M 9.6875 -10.265625 "/></g></g></g><g fill="#ffffff" fill-opacity="1"><g transform="translate(104.108952, 30.769889)"><g><path d="M 5.125 -0.515625 L 5.125 -1.109375 C 5.125 -1.453125 4.953125 -1.625 4.609375 -1.625 L 4.015625 -1.625 C 3.679688 -1.625 3.515625 -1.796875 3.515625 -2.140625 L 3.515625 -2.734375 C 3.515625 -3.066406 3.34375 -3.234375 3 -3.234375 L 2.40625 -3.234375 C 2.0625 -3.234375 1.890625 -3.40625 1.890625 -3.75 L 1.890625 -15.140625 C 1.890625 -15.484375 2.0625 -15.65625 2.40625 -15.65625 L 3 -15.65625 C 3.34375 -15.65625 3.515625 -15.828125 3.515625 -16.171875 L 3.515625 -16.765625 C 3.515625 -17.109375 3.679688 -17.28125 4.015625 -17.28125 L 4.609375 -17.28125 C 4.953125 -17.28125 5.125 -17.453125 5.125 -17.796875 L 5.125 -18.390625 C 5.125 -18.734375 5.296875 -18.90625 5.640625 -18.90625 L 15.953125 -18.90625 C 16.296875 -18.90625 16.46875 -18.734375 16.46875 -18.390625 L 16.46875 -17.796875 C 16.46875 -17.453125 16.640625 -17.28125 16.984375 -17.28125 L 17.578125 -17.28125 C 17.921875 -17.28125 18.09375 -17.109375 18.09375 -16.765625 L 18.09375 -16.171875 C 18.09375 -15.828125 18.265625 -15.65625 18.609375 -15.65625 L 19.203125 -15.65625 C 19.535156 -15.65625 19.703125 -15.484375 19.703125 -15.140625 L 19.703125 -10.765625 C 19.703125 -10.429688 19.535156 -10.265625 19.203125 -10.265625 L 18.609375 -10.265625 C 18.265625 -10.265625 18.09375 -10.09375 18.09375 -9.75 L 18.09375 -9.15625 C 18.09375 -8.8125 17.921875 -8.640625 17.578125 -8.640625 L 9.6875 -8.640625 C 9.351562 -8.640625 9.1875 -8.46875 9.1875 -8.125 L 9.1875 -2.140625 C 9.1875 -1.796875 9.351562 -1.625 9.6875 -1.625 L 10.28125 -1.625 C 10.625 -1.625 10.796875 -1.796875 10.796875 -2.140625 L 10.796875 -2.734375 C 10.796875 -3.066406 10.96875 -3.234375 11.3125 -3.234375 L 11.90625 -3.234375 C 12.25 -3.234375 12.421875 -3.40625 12.421875 -3.75 L 12.421875 -5.609375 C 12.421875 -5.953125 12.59375 -6.125 12.9375 -6.125 L 19.203125 -6.125 C 19.535156 -6.125 19.703125 -5.953125 19.703125 -5.609375 L 19.703125 -3.75 C 19.703125 -3.40625 19.535156 -3.234375 19.203125 -3.234375 L 18.609375 -3.234375 C 18.265625 -3.234375 18.09375 -3.066406 18.09375 -2.734375 L 18.09375 -2.140625 C 18.09375 -1.796875 17.921875 -1.625 17.578125 -1.625 L 16.984375 -1.625 C 16.640625 -1.625 16.46875 -1.453125 16.46875 -1.109375 L 16.46875 -0.515625 C 16.46875 -0.171875 16.296875 0 15.953125 0 L 5.640625 0 C 5.296875 0 5.125 -0.171875 5.125 -0.515625 Z M 9.6875 -10.265625 L 11.90625 -10.265625 C 12.25 -10.265625 12.421875 -10.429688 12.421875 -10.765625 L 12.421875 -16.765625 C 12.421875 -17.109375 12.25 -17.28125 11.90625 -17.28125 L 11.3125 -17.28125 C 10.96875 -17.28125 10.796875 -17.109375 10.796875 -16.765625 L 10.796875 -16.171875 C 10.796875 -15.828125 10.625 -15.65625 10.28125 -15.65625 L 9.6875 -15.65625 C 9.351562 -15.65625 9.1875 -15.484375 9.1875 -15.140625 L 9.1875 -10.765625 C 9.1875 -10.429688 9.351562 -10.265625 9.6875 -10.265625 Z M 9.6875 -10.265625 "/></g></g></g><g fill="#ffffff" fill-opacity="1"><g transform="translate(125.162451, 30.769889)"><g><path d="M 1.890625 -0.515625 L 1.890625 -18.390625 C 1.890625 -18.734375 2.0625 -18.90625 2.40625 -18.90625 L 6.234375 -18.90625 C 6.578125 -18.90625 6.75 -18.734375 6.75 -18.390625 L 6.75 -16.171875 C 6.75 -15.828125 6.921875 -15.65625 7.265625 -15.65625 L 7.859375 -15.65625 C 8.203125 -15.65625 8.375 -15.828125 8.375 -16.171875 L 8.375 -16.765625 C 8.375 -17.109375 8.546875 -17.28125 8.890625 -17.28125 L 9.484375 -17.28125 C 9.816406 -17.28125 9.984375 -17.453125 9.984375 -17.796875 L 9.984375 -18.390625 C 9.984375 -18.734375 10.15625 -18.90625 10.5 -18.90625 L 17.578125 -18.90625 C 17.921875 -18.90625 18.09375 -18.734375 18.09375 -18.390625 L 18.09375 -17.796875 C 18.09375 -17.453125 18.265625 -17.28125 18.609375 -17.28125 L 19.203125 -17.28125 C 19.335938 -17.28125 19.40625 -17.28125 19.40625 -17.28125 C 19.40625 -17.28125 19.335938 -17.28125 19.203125 -17.28125 L 18.609375 -17.28125 C 18.460938 -17.28125 18.390625 -17.28125 18.390625 -17.28125 C 18.390625 -17.28125 18.460938 -17.28125 18.609375 -17.28125 L 19.203125 -17.28125 C 19.535156 -17.28125 19.703125 -17.109375 19.703125 -16.765625 L 19.703125 -0.515625 C 19.703125 -0.171875 19.535156 0 19.203125 0 L 12.9375 0 C 12.59375 0 12.421875 -0.171875 12.421875 -0.515625 L 12.421875 -16.765625 C 12.421875 -17.109375 12.25 -17.28125 11.90625 -17.28125 L 11.3125 -17.28125 C 10.96875 -17.28125 10.796875 -17.109375 10.796875 -16.765625 L 10.796875 -16.171875 C 10.796875 -15.828125 10.625 -15.65625 10.28125 -15.65625 L 9.6875 -15.65625 C 9.351562 -15.65625 9.1875 -15.484375 9.1875 -15.140625 L 9.1875 -0.515625 C 9.1875 -0.171875 9.015625 0 8.671875 0 L 2.40625 0 C 2.0625 0 1.890625 -0.171875 1.890625 -0.515625 Z M 1.890625 -0.515625 "/></g></g></g></svg>